<?xml version="1.0" encoding="UTF-8"?><svg id="a" xmlns="http://www.w3.org/2000/svg" viewBox="0 0 598.52757 598.5276"><defs><style>.d{fill:#fff;}.e{stroke:#ccc;stroke-miterlimit:79.3701;stroke-width:59.5276px;}</style></defs><g id="b"><path class="e" d="M299.2638,568.7638c-148.8,0-269.5-120.59998-269.5-269.5S150.36381,29.7638,299.2638,29.7638s269.49997,120.60001,269.49997,269.5c-.19995,148.79999-120.69998,269.29999-269.49997,269.5"/><path class="d" d="M299.2638,6.86378C137.7638,6.86378,6.86379,137.76377,6.86379,299.26377s130.89999,292.50003,292.50001,292.50003,292.5-130.90002,292.5-292.5C591.56382,137.86378,460.7638,7.06377,299.2638,6.86378m0,46c136.10001,0,246.39999,110.29999,246.39999,246.39999s-110.29999,246.50003-246.39999,246.50003S52.86379,435.46375,52.86379,299.26377h0c.2-136,110.40001-246.2,246.40001-246.39999"/></g><g id="c"><path class="d" d="M334.96378,141.66376l106.5,284.70001c2.20001,5.90002-2.10001,12.20001-8.39999,12.20001h-49.70001c-3.89999,0-7.29999-2.5-8.5-6.09998l-20.79999-61.29999h-113.29999l-21.60001,61.40002c-1.3,3.59998-4.7,6-8.5,6h-47.60001c-6.3,0-10.60001-6.29999-8.39999-12.20001l107.70001-284.70001c1.29999-3.5,4.70001-5.79999,8.39999-5.79999h55.79999c3.70001-.10007,7.10001,2.29993,8.39999,5.79993Zm1.70001,179.80002l-38.20001-111.10001h-.79999l-39.39999,111.10001h78.39999Z"/></g></svg>